{"asset":{"generator":"glTF-Transform v4.0.2","version":"2.0"},"accessors":[{"type":"VEC3","componentType":5126,"count":6549,"max":[1.2699999809265137,0.29609739780426025,1.2699999809265137],"min":[-1.2699999809265137,-0.2994888424873352,-1.5858871936798096],"bufferView":0,"byteOffset":0},{"type":"VEC3","componentType":5126,"count":6549,"bufferView":0,"byteOffset":12},{"type":"VEC2","componentType":5126,"count":6549,"bufferView":0,"byteOffset":24},{"type":"VEC2","componentType":5126,"count":6549,"bufferView":0,"byteOffset":32},{"type":"SCALAR","componentType":5123,"count":24192,"bufferView":1,"byteOffset":0},{"type":"SCALAR","componentType":5123,"count":3888,"bufferView":1,"byteOffset":48384},{"type":"VEC3","componentType":5126,"count":2028,"max":[0.9353526830673218,0.2777274549007416,-1.0393747091293335],"min":[-0.9353526830673218,-0.2885446548461914,-1.518488883972168],"bufferView":2,"byteOffset":0},{"type":"VEC3","componentType":5126,"count":2028,"bufferView":2,"byteOffset":12},{"type":"VEC2","componentType":5126,"count":2028,"bufferView":2,"byteOffset":24},{"type":"VEC2","componentType":5126,"count":2028,"bufferView":2,"byteOffset":32}],"bufferViews":[{"buffer":0,"byteOffset":0,"byteLength":261960,"byteStride":40,"target":34962},{"buffer":0,"byteOffset":261960,"byteLength":56160,"target":34963},{"buffer":0,"byteOffset":318120,"byteLength":81120,"byteStride":40,"target":34962}],"buffers":[{"uri":"ring5.bin","byteLength":399240}],"materials":[{"name":"Material #25","doubleSided":true,"pbrMetallicRoughness":{"baseColorFactor":[1,0.5396102070808411,0.14251330494880676,1],"roughnessFactor":0},"extensions":{"KHR_materials_specular":{"specularColorFactor":[2,2,2]}}},{"name":"Material","alphaMode":"BLEND","doubleSided":true,"pbrMetallicRoughness":{"baseColorFactor":[0.11433814465999603,0.4668274223804474,0.8002911806106567,1],"roughnessFactor":0.3134714961051941},"extensions":{"KHR_materials_transmission":{"transmissionFactor":0.9863636493682861}}}],"meshes":[{"name":"Torus","primitives":[{"attributes":{"POSITION":0,"NORMAL":1,"TEXCOORD_0":2,"TEXCOORD_1":3},"mode":4,"material":0,"indices":4},{"attributes":{"POSITION":6,"NORMAL":7,"TEXCOORD_0":8,"TEXCOORD_1":9},"mode":4,"material":1,"indices":5}]}],"nodes":[{"name":"Torus","rotation":[0.7071068286895752,0,0,0.7071068286895752],"mesh":0}],"scenes":[{"name":"Scene","nodes":[0]}],"scene":0,"extensionsUsed":["KHR_materials_specular","KHR_materials_transmission"]}