{
	"asset":{
		"generator":"Khronos glTF Blender I/O v4.1.63",
		"version":"2.0"
	},
	"scene":0,
	"scenes":[
		{
			"name":"Scene",
			"nodes":[
				0
			]
		}
	],
	"nodes":[
		{
			"mesh":0,
			"name":"Sphere"
		}
	],
	"materials":[
		{
			"doubleSided":true,
			"name":"Material",
			"pbrMetallicRoughness":{
				"baseColorFactor":[
					0.21624183654785156,
					0.8000074625015259,
					0.13162285089492798,
					1
				],
				"metallicFactor":0,
				"roughnessFactor":0.5
			}
		},
		{
			"doubleSided":true,
			"name":"Material.007",
			"pbrMetallicRoughness":{
				"baseColorFactor":[
					0.8000074625015259,
					0.09542497992515564,
					0.05602020025253296,
					1
				],
				"metallicFactor":0,
				"roughnessFactor":0.5
			}
		},
		{
			"doubleSided":true,
			"name":"Material.008",
			"pbrMetallicRoughness":{
				"baseColorFactor":[
					0.8000156879425049,
					0.6252580881118774,
					0.04119562730193138,
					1
				],
				"metallicFactor":0,
				"roughnessFactor":0.5
			}
		}
	],
	"meshes":[
		{
			"name":"Sphere",
			"primitives":[
				{
					"attributes":{
						"POSITION":0,
						"NORMAL":1,
						"TEXCOORD_0":2
					},
					"indices":3,
					"material":0
				},
				{
					"attributes":{
						"POSITION":4,
						"NORMAL":5,
						"TEXCOORD_0":6
					},
					"indices":7,
					"material":1
				},
				{
					"attributes":{
						"POSITION":8,
						"NORMAL":9,
						"TEXCOORD_0":10
					},
					"indices":11,
					"material":2
				}
			]
		}
	],
	"accessors":[
		{
			"bufferView":0,
			"componentType":5126,
			"count":559,
			"max":[
				1,
				1,
				0.5048366189002991
			],
			"min":[
				-0.9999993443489075,
				-1,
				-0.5048363208770752
			],
			"type":"VEC3"
		},
		{
			"bufferView":1,
			"componentType":5126,
			"count":559,
			"type":"VEC3"
		},
		{
			"bufferView":2,
			"componentType":5126,
			"count":559,
			"type":"VEC2"
		},
		{
			"bufferView":3,
			"componentType":5123,
			"count":2880,
			"type":"SCALAR"
		},
		{
			"bufferView":4,
			"componentType":5126,
			"count":592,
			"max":[
				0.6560935974121094,
				0.48687416315078735,
				0.5544678568840027
			],
			"min":[
				-0.6150006651878357,
				-0.019105777144432068,
				0.30147767066955566
			],
			"type":"VEC3"
		},
		{
			"bufferView":5,
			"componentType":5126,
			"count":592,
			"type":"VEC3"
		},
		{
			"bufferView":6,
			"componentType":5126,
			"count":592,
			"type":"VEC2"
		},
		{
			"bufferView":7,
			"componentType":5123,
			"count":2880,
			"type":"SCALAR"
		},
		{
			"bufferView":8,
			"componentType":5126,
			"count":273,
			"max":[
				0.5445598363876343,
				-0.08754852414131165,
				0.5089686512947083
			],
			"min":[
				-0.5445598363876343,
				-0.5637698173522949,
				0.28346073627471924
			],
			"type":"VEC3"
		},
		{
			"bufferView":9,
			"componentType":5126,
			"count":273,
			"type":"VEC3"
		},
		{
			"bufferView":10,
			"componentType":5126,
			"count":273,
			"type":"VEC2"
		},
		{
			"bufferView":11,
			"componentType":5123,
			"count":1500,
			"type":"SCALAR"
		}
	],
	"bufferViews":[
		{
			"buffer":0,
			"byteLength":6708,
			"byteOffset":0,
			"target":34962
		},
		{
			"buffer":0,
			"byteLength":6708,
			"byteOffset":6708,
			"target":34962
		},
		{
			"buffer":0,
			"byteLength":4472,
			"byteOffset":13416,
			"target":34962
		},
		{
			"buffer":0,
			"byteLength":5760,
			"byteOffset":17888,
			"target":34963
		},
		{
			"buffer":0,
			"byteLength":7104,
			"byteOffset":23648,
			"target":34962
		},
		{
			"buffer":0,
			"byteLength":7104,
			"byteOffset":30752,
			"target":34962
		},
		{
			"buffer":0,
			"byteLength":4736,
			"byteOffset":37856,
			"target":34962
		},
		{
			"buffer":0,
			"byteLength":5760,
			"byteOffset":42592,
			"target":34963
		},
		{
			"buffer":0,
			"byteLength":3276,
			"byteOffset":48352,
			"target":34962
		},
		{
			"buffer":0,
			"byteLength":3276,
			"byteOffset":51628,
			"target":34962
		},
		{
			"buffer":0,
			"byteLength":2184,
			"byteOffset":54904,
			"target":34962
		},
		{
			"buffer":0,
			"byteLength":3000,
			"byteOffset":57088,
			"target":34963
		}
	],
	"buffers":[
		{
			"byteLength":60088,
			"uri":"smile.bin"
		}
	]
}
